ffmpeg version 3.4.8-0ubuntu0.2 Copyright (c) 2000-2020 the FFmpeg developers
  built with gcc 7 (Ubuntu 7.5.0-3ubuntu1~18.04)
  configuration: --prefix=/usr --extra-version=0ubuntu0.2 --toolchain=hardened --libdir=/usr/lib/x86_64-linux-gnu --incdir=/usr/include/x86_64-linux-gnu --enable-gpl --disable-stripping --enable-avresample --enable-avisynth --enable-gnutls --enable-ladspa --enable-libass --enable-libbluray --enable-libbs2b --enable-libcaca --enable-libcdio --enable-libflite --enable-libfontconfig --enable-libfreetype --enable-libfribidi --enable-libgme --enable-libgsm --enable-libmp3lame --enable-libmysofa --enable-libopenjpeg --enable-libopenmpt --enable-libopus --enable-libpulse --enable-librubberband --enable-librsvg --enable-libshine --enable-libsnappy --enable-libsoxr --enable-libspeex --enable-libssh --enable-libtheora --enable-libtwolame --enable-libvorbis --enable-libvpx --enable-libwavpack --enable-libwebp --enable-libx265 --enable-libxml2 --enable-libxvid --enable-libzmq --enable-libzvbi --enable-omx --enable-openal --enable-opengl --enable-sdl2 --enable-libdc1394 --enable-libdrm --enable-libiec61883 --enable-chromaprint --enable-frei0r --enable-libopencv --enable-libx264 --enable-shared
  libavutil      55. 78.100 / 55. 78.100
  libavcodec     57.107.100 / 57.107.100
  libavformat    57. 83.100 / 57. 83.100
  libavdevice    57. 10.100 / 57. 10.100
  libavfilter     6.107.100 /  6.107.100
  libavresample   3.  7.  0 /  3.  7.  0
  libswscale      4.  8.100 /  4.  8.100
  libswresample   2.  9.100 /  2.  9.100
  libpostproc    54.  7.100 / 54.  7.100
[rawvideo @ 0x55e32fdd0a20] Estimating duration from bitrate, this may be inaccurate
Input #0, rawvideo, from '../../SVC-Encoder-20220109T061506Z-001/SVC-Encoder/Dataset/RollerCoaster/6f_2x2/tile_yuv/f5_t0_480x480.yuv':
  Duration: 00:00:10.00, start: 0.000000, bitrate: 82944 kb/s
    Stream #0:0: Video: rawvideo (I420 / 0x30323449), yuv420p, 480x480, 82944 kb/s, 30 tbr, 30 tbn, 30 tbc
Stream mapping:
  Stream #0:0 -> #0:0 (rawvideo (native) -> h264 (libx264))
Press [q] to stop, [?] for help
[libx264 @ 0x55e32fdddc60] using cpu capabilities: MMX2 SSE2Fast LZCNT SSSE3 SSE4.2 AVX
[libx264 @ 0x55e32fdddc60] profile High, level 3.0
Output #0, rawvideo, to 'RollerCoaster_f5_t0_480x480_x264_QP_40.h264':
  Metadata:
    encoder         : Lavf57.83.100
    Stream #0:0: Video: h264 (libx264), yuv420p, 480x480, q=-1--1, 30 fps, 30 tbn, 30 tbc
    Metadata:
      encoder         : Lavc57.107.100 libx264
    Side data:
      cpb: bitrate max/min/avg: 0/0/0 buffer size: 0 vbv_delay: -1
frame=  218 fps=0.0 q=46.0 PSNR=Y:nan U:nan V:nan *:nan size=      13kB time=00:00:05.83 bitrate=  18.5kbits/s speed=11.6x    frame=  300 fps=0.0 q=46.0 LPSNR=Y:inf U:inf V:inf *:inf size=      20kB time=00:00:09.93 bitrate=  16.9kbits/s speed=13.6x    
video:20kB audio:0kB subtitle:0kB other streams:0kB global headers:0kB muxing overhead: 0.000000%
[libx264 @ 0x55e32fdddc60] frame I:2     Avg QP:38.76  size:  1192  PSNR Mean Y:39.05 U:43.92 V:46.80 Avg:40.30 Global:40.20
[libx264 @ 0x55e32fdddc60] frame P:96    Avg QP:41.97  size:   118  PSNR Mean Y:37.53 U:43.02 V:46.14 Avg:38.85 Global:38.74
[libx264 @ 0x55e32fdddc60] frame B:202   Avg QP:45.59  size:    36  PSNR Mean Y:37.83 U:43.12 V:46.35 Avg:39.14 Global:39.08
[libx264 @ 0x55e32fdddc60] consecutive B-frames:  7.0%  8.7%  3.0% 81.3%
[libx264 @ 0x55e32fdddc60] mb I  I16..4:  6.7% 91.8%  1.5%
[libx264 @ 0x55e32fdddc60] mb P  I16..4:  0.4%  1.5%  0.0%  P16..4:  3.3%  0.3%  0.0%  0.0%  0.0%    skip:94.4%
[libx264 @ 0x55e32fdddc60] mb B  I16..4:  0.0%  0.0%  0.0%  B16..8:  1.6%  0.0%  0.0%  direct: 0.0%  skip:98.3%  L0:41.1% L1:58.9% BI: 0.1%
[libx264 @ 0x55e32fdddc60] 8x8 transform intra:84.7% inter:83.9%
[libx264 @ 0x55e32fdddc60] coded y,uvDC,uvAC intra: 3.7% 9.0% 0.5% inter: 0.1% 0.1% 0.0%
[libx264 @ 0x55e32fdddc60] i16 v,h,dc,p: 36% 48%  6% 10%
[libx264 @ 0x55e32fdddc60] i8 v,h,dc,ddl,ddr,vr,hd,vl,hu:  0%  1% 97%  0%  0%  0%  0%  0%  1%
[libx264 @ 0x55e32fdddc60] i4 v,h,dc,ddl,ddr,vr,hd,vl,hu:  4% 16% 60%  3%  1%  1%  2%  1% 12%
[libx264 @ 0x55e32fdddc60] i8c dc,h,v,p: 95%  4%  1%  0%
[libx264 @ 0x55e32fdddc60] Weighted P-Frames: Y:0.0% UV:0.0%
[libx264 @ 0x55e32fdddc60] ref P L0: 60.6% 15.7% 17.4%  6.3%
[libx264 @ 0x55e32fdddc60] ref B L0: 60.9% 32.7%  6.4%
[libx264 @ 0x55e32fdddc60] ref B L1: 80.1% 19.9%
[libx264 @ 0x55e32fdddc60] PSNR Mean Y:37.739 U:43.096 V:46.283 Avg:39.052 Global:38.974 kb/s:16.74
